<?xml version="1.0" standalone="no"?><!DOCTYPE svg PUBLIC "-//W3C//DTD SVG 1.1//EN" "http://www.w3.org/Graphics/SVG/1.1/DTD/svg11.dtd"><svg t="1607652711188" class="icon" viewBox="0 0 1024 1024" version="1.1" xmlns="http://www.w3.org/2000/svg" p-id="1956" xmlns:xlink="http://www.w3.org/1999/xlink" width="200" height="200"><defs><style type="text/css"></style></defs><path d="M776.043 548.63c-24.768 0.106-48.128 6.378-69.142 16.469l-89.45-133.867c33.365-29.739 54.656-72.683 54.4-120.704-0.427-89.237-73.195-161.621-162.496-161.195-89.28 0.427-161.43 73.494-161.024 162.624 0.213 48.064 21.973 90.688 55.381 120.256l-88.043 134.678c-21.205-9.963-44.437-15.936-69.333-15.83-89.152 0.363-161.43 73.366-161.003 162.624 0.299 89.152 73.195 161.451 162.496 160.96 81.451-0.32 148.054-61.269 158.87-139.84l210.73-1.002c11.435 78.506 78.592 138.858 160.107 138.517 89.237-0.427 161.43-73.301 161.13-162.56-0.469-89.237-73.471-161.536-162.623-161.13z m-158.87 139.84l-210.73 0.96a161.13 161.13 0 0 0-52.971-97.6L441.6 457.11c21.141 9.962 44.437 16.042 69.27 15.829a159.957 159.957 0 0 0 69.162-16.384L669.525 590.4a160.32 160.32 0 0 0-52.352 98.07z" fill="#515151" p-id="1957"></path></svg>