<?xml version="1.0" standalone="no"?><!DOCTYPE svg PUBLIC "-//W3C//DTD SVG 1.1//EN" "http://www.w3.org/Graphics/SVG/1.1/DTD/svg11.dtd"><svg t="1607053094219" class="icon" viewBox="0 0 1024 1024" version="1.1" xmlns="http://www.w3.org/2000/svg" p-id="10262" xmlns:xlink="http://www.w3.org/1999/xlink" width="200" height="200"><defs><style type="text/css"></style></defs><path d="M136.0896 597.333333c16.9472 0 28.245333-11.383467 28.245333-28.450133v-426.666667c0-48.349867 36.727467-85.333333 84.753067-85.333333h508.552533c48.042667 0 84.770133 36.983467 84.770134 85.333333V512c0 17.066667 11.298133 28.450133 28.245333 28.450133S898.9184 529.066667 898.9184 512V142.216533C898.901333 62.583467 836.7616 0 757.640533 0H249.088C169.984 0 107.8272 62.583467 107.8272 142.216533v426.666667c0 17.066667 11.298133 28.450133 28.2624 28.450133z m853.230933 142.216534c-2.816-36.9664-22.596267-68.266667-53.674666-88.1664-62.1568-34.133333-158.208-73.966933-223.197867-85.333334-64.989867-11.383467-104.533333-5.700267-217.5488 19.899734-73.454933 17.066667-118.664533 22.766933-138.4448 25.6-16.9472 2.850133-33.8944 11.383467-45.2096 25.6-11.298133 14.2336-14.114133 31.300267-11.298133 48.366933 5.649067 36.9664 36.727467 71.099733 70.638933 82.4832 28.245333 8.533333 90.402133 8.533333 144.093867 2.850133-14.1312 5.6832-31.0784 11.3664-53.691734 17.066667-36.727467 11.3664-90.402133 2.833067-124.3136-8.533333-31.061333-17.066667-132.778667-71.1168-206.250666-88.183467-79.104-19.9168-104.533333 31.2832-110.1824 48.349867-8.465067 28.450133 0 59.733333 25.429333 76.8 50.858667 34.133333 144.093867 93.866667 180.821333 113.783466 11.298133 5.6832 22.596267 14.216533 36.727467 22.749867 39.560533 25.6 87.586133 59.733333 155.392 68.266667 19.780267 2.850133 39.560533 2.850133 56.490667 2.850133 93.252267 0 166.7072-25.6 220.381866-45.5168 22.613333-8.533333 50.858667-17.066667 59.3408-17.066667 16.9472 2.850133 42.376533 8.533333 67.805867 14.2336l5.649067 2.833067c39.560533 8.533333 79.104-5.6832 101.717333-36.9664 25.429333-25.6 64.9728-96.7168 59.323733-201.966933z m-115.831466 167.8336c-5.649067 8.533333-16.964267 11.3664-28.2624 8.533333l-5.632-2.850133c-28.2624-5.6832-56.5248-14.216533-76.288-17.066667-25.429333-2.850133-53.691733 5.6832-93.2352 19.9168-59.3408 19.899733-141.277867 51.2-245.8112 36.9664C373.418667 947.2 336.674133 921.6 299.946667 896c-14.1312-8.533333-28.245333-19.9168-42.376534-25.6-25.429333-14.216533-87.586133-54.050133-172.3392-108.0832 2.816-2.850133 11.298133-2.850133 25.429334 0 50.858667 11.3664 132.778667 51.2 189.2864 82.4832 5.649067 2.850133 8.482133 5.6832 14.1312 5.6832 22.596267 5.700267 101.717333 25.6 166.690133 8.533333 73.454933-22.749867 115.831467-42.666667 138.4448-65.416533 22.596267-25.6 31.061333-54.050133 19.780267-76.8-8.482133-17.066667-28.2624-28.450133-50.858667-22.749867-48.042667 8.533333-172.356267 17.066667-197.768533 8.533334C379.050667 699.733333 373.4016 691.2 367.752533 682.666667c28.2624-2.850133 73.454933-11.383467 141.2608-25.6 115.848533-25.6 141.277867-25.6 192.119467-17.066667 56.507733 8.533333 144.093867 45.5168 200.6016 76.8 11.298133 5.6832 16.9472 17.066667 16.9472 28.450133 5.666133 79.633067-25.429333 136.533333-45.192533 162.133334z" p-id="10263"></path><path d="M420.983467 228.693333h302.455466c16.503467 0 27.4944-11.605333 27.4944-29.013333s-10.990933-29.013333-27.4944-29.013333H420.983467c-16.503467 0-27.4944 11.605333-27.4944 29.013333s10.990933 29.013333 27.477333 29.013333z m302.455466 58.026667H420.983467c-16.503467 0-27.4944 11.605333-27.4944 29.013333s10.990933 29.013333 27.477333 29.013334H723.456c16.503467 0 27.4944-11.605333 27.4944-29.013334s-10.990933-29.013333-27.4944-29.013333zM310.9888 170.666667h-27.477333c-16.520533 0-27.511467 11.605333-27.511467 29.013333s10.990933 29.013333 27.4944 29.013333h27.4944c16.503467 0 27.4944-11.605333 27.4944-29.013333s-10.990933-29.013333-27.477333-29.013333z m0 116.053333h-27.477333c-16.520533 0-27.511467 11.605333-27.511467 29.013333s10.990933 29.013333 27.4944 29.013334h27.4944c16.503467 0 27.4944-11.605333 27.4944-29.013334s-10.990933-29.013333-27.477333-29.013333z m412.450133 116.053333H420.983467c-16.503467 0-27.4944 11.605333-27.4944 29.013334s10.990933 29.013333 27.477333 29.013333H723.456c16.503467 0 27.4944-11.605333 27.4944-29.013333s-10.990933-29.013333-27.4944-29.013334z m-412.450133 0h-27.477333c-16.520533 0-27.511467 11.605333-27.511467 29.013334s10.990933 29.013333 27.4944 29.013333h27.4944c16.503467 0 27.4944-11.605333 27.4944-29.013333s-10.990933-29.013333-27.477333-29.013334z" p-id="10264"></path></svg>