<?xml version="1.0" standalone="no"?><!DOCTYPE svg PUBLIC "-//W3C//DTD SVG 1.1//EN" "http://www.w3.org/Graphics/SVG/1.1/DTD/svg11.dtd"><svg t="1607053790315" class="icon" viewBox="0 0 1024 1024" version="1.1" xmlns="http://www.w3.org/2000/svg" p-id="19661" xmlns:xlink="http://www.w3.org/1999/xlink" width="200" height="200"><defs><style type="text/css"></style></defs><path d="M901.92 640.86c-14.59-0.13-26.49 11.66-26.49 26.25v62.54H263.98V150.73h117.94c14.56 0 26.34-11.85 26.25-26.41-0.09-14.44-11.82-26.09-26.25-26.09H236.48c-13.81 0-25 11.19-25 25v122.62H123.6c-13.81 0-25 11.19-25 25v633.83c0 13.81 11.19 25 25 25h666.45c13.81 0 25-11.19 25-25V782.06h87.88c13.81 0 25-11.19 25-25v-89.95c0-14.41-11.61-26.12-26.01-26.25zM762.55 877.27H151.1V298.44h60.38v458.62c0 13.81 11.19 25 25 25h526.07v95.21z" p-id="19662"></path><path d="M844.44 188.9c-50.68-50.87-118.23-78.79-190.01-78.79-71.78 0-139.42 27.92-190.19 78.7-50.78 50.77-78.79 118.32-78.79 190.1s28.01 139.42 78.79 190.2c50.77 50.77 118.32 78.78 190.1 78.78s139.33-28.01 190.1-78.78c50.78-50.78 78.79-118.32 78.79-190.1 0-71.79-28.01-139.33-78.79-190.11zM654.43 594.68c-118.92 0-215.68-96.75-215.68-215.67s96.75-215.68 215.68-215.68c118.92 0 215.68 96.76 215.68 215.68s-96.75 215.67-215.68 215.67z" p-id="19663"></path><path d="M617.02 458.07c6.27 6.27 14.56 9.49 22.76 9.49 8.2 0 16.49-3.13 22.76-9.49l113.98-113.98c12.63-12.63 12.63-32.99 0-45.61-12.62-12.63-32.99-12.63-45.61 0l-91.23 91.23-42.57-42.75c-12.63-12.63-32.99-12.63-45.62 0-12.63 12.62-12.63 32.99 0 45.61l65.53 65.5z" p-id="19664"></path></svg>