<?xml version="1.0" standalone="no"?><!DOCTYPE svg PUBLIC "-//W3C//DTD SVG 1.1//EN" "http://www.w3.org/Graphics/SVG/1.1/DTD/svg11.dtd"><svg t="1607053107325" class="icon" viewBox="0 0 1024 1024" version="1.1" xmlns="http://www.w3.org/2000/svg" p-id="11166" xmlns:xlink="http://www.w3.org/1999/xlink" width="200" height="200"><defs><style type="text/css"></style></defs><path d="M153 387.5c-19.882 0-36-16.118-36-36s16.118-36 36-36h211.531c19.883 0 36 16.118 36 36s-16.117 36-36 36H153z m0 159c-19.882 0-36-16.118-36-36s16.118-36 36-36h104.625c19.882 0 36 16.118 36 36s-16.118 36-36 36H153z m0-318c-19.882 0-36-16.118-36-36s16.118-36 36-36h304.25c19.882 0 36 16.118 36 36s-16.118 36-36 36H153z m7 530.519c0.103-23.168 9.39-45.348 25.776-61.634l311.066-310.373 20.26 50.609c17.342 43.32 51.73 77.634 95.125 94.912l3.886 1.547 38.74 27.09-303.357 302.652-0.095 0.094A87.46 87.46 0 0 1 290.04 889h-0.132l-0.131-0.001a89.321 89.321 0 0 1-60.991-24.724l-0.383-0.365-42.578-43.129a86.024 86.024 0 0 1-25.824-61.762z m438.91-193.04l-20.63 29.502 0.09 0.063 20.363-29.12 0.177-0.445z m-124.028-55.345l-238.3 237.768A15.493 15.493 0 0 0 232 759.298a14 14 0 0 0 4.26 10.1l0.285 0.275 42.252 42.799A17.322 17.322 0 0 0 290.21 817a15.46 15.46 0 0 0 10.65-4.364l238.348-237.794a242.365 242.365 0 0 1-64.326-64.208z m246.637-117.007c12.462-7.605 29.124-17.775 37.433-22.783l3.096-1.864c15.441-9.283 28.21-16.774 38.225-22.364 6.022-3.361 11.033-6.027 15.127-8.018 2.613-1.27 4.95-2.316 7.187-3.18 5.143-1.986 9.265-3.113 15.53-3.113 11.526 0 21.387 4.42 29.309 11.299 5.05 4.387 9.105 9.614 12.403 15.395 5.605 9.824 9.171 21.58 9.171 32.377v27.157l-3.597 1.027c-1.872 8.095-4.446 16.642-7.623 25.88l-0.065 0.19-0.068 0.189c-30.595 85.84-111.563 143.421-202.69 144.161-77.495 1.055-149.566-39.669-188.638-106.6-39.092-66.967-39.092-149.793 0-216.76 39.05-66.893 111.06-107.608 188.503-106.602 37.83 0.051 81.368 11.381 110.647 30.769a49.16 49.16 0 0 1 23.24 41.038l0.02 1.292-0.074 1.29a50.148 50.148 0 0 1-23.278 39.547l-0.62 0.392-99.799 57.522v45.419l36.561 16.34z m88.175 28.398l2.511 0.863 0.416-0.246-2.795-0.996-0.065 0.184-0.067 0.195z m-10.548 8.662l-3.025 1.821c-13.29 8.01-50.966 31.08-53.867 32.776l-15.97 9.337-113.326-50.65V290.264l94.365-54.39c-10.932-2.454-22.327-3.856-32.758-3.856h-0.255l-0.255-0.004c-51.578-0.73-99.554 26.363-125.555 70.904-26 44.54-26 99.625 0 144.164 26.001 44.541 73.977 71.634 125.555 70.904l0.118-0.002 0.119-0.001c59.72-0.453 112.922-37.433 134.273-92.933-3.008 1.791-6.15 3.671-9.419 5.637z m-39.32-198.13l-0.552-0.957-0.687-0.039 0.636 1.005 0.603-0.009z m57.466 162.122c-0.02-0.036 0.041 0.109 0.058 0.165a2.522 2.522 0 0 1-0.033-0.121 4.112 4.112 0 0 1-0.025-0.044z" p-id="11167"></path></svg>