<?xml version="1.0" standalone="no"?><!DOCTYPE svg PUBLIC "-//W3C//DTD SVG 1.1//EN" "http://www.w3.org/Graphics/SVG/1.1/DTD/svg11.dtd"><svg t="1607053852545" class="icon" viewBox="0 0 1024 1024" version="1.1" xmlns="http://www.w3.org/2000/svg" p-id="20426" xmlns:xlink="http://www.w3.org/1999/xlink" width="200" height="200"><defs><style type="text/css"></style></defs><path d="M215.183 309.452c-22 0-40-18-40-40V104.243c0-22 18-40 40-40s40 18 40 40v165.209c0 22-18 40-40 40zM428.204 309.452c-22 0-40-18-40-40V104.243c0-22 18-40 40-40s40 18 40 40v165.209c0 22-18 40-40 40zM641.225 309.452c-22 0-40-18-40-40V104.243c0-22 18-40 40-40s40 18 40 40v165.209c0 22-18 40-40 40zM808.473 428.243h-744v167.001c0 49.257 9.656 97.062 28.7 142.087 18.386 43.468 44.697 82.498 78.206 116.007 33.508 33.508 72.538 59.819 116.007 78.205 45.024 19.044 92.83 28.7 142.087 28.7s97.062-9.656 142.087-28.7c43.469-18.386 82.499-44.697 116.007-78.205 33.509-33.509 59.82-72.539 78.206-116.007 0.715-1.689 1.39-3.391 2.078-5.088h40.622c83.813 0 152-68.187 152-152s-68.187-152-152-152zM630.998 796.768c-53.829 53.829-125.398 83.475-201.525 83.475s-147.696-29.646-201.525-83.475-83.475-125.398-83.475-201.524v-87.001h570v87.001c0 19.368-1.929 38.438-5.677 56.999a281.568 281.568 0 0 1-29.285 80c-12.864 23.399-29.107 45.119-48.513 64.525z m177.475-144.525h-18.429a368.05 368.05 0 0 0 4.429-56.999v-87.001h14c39.701 0 72 32.3 72 72.001 0 39.7-32.299 71.999-72 71.999z" p-id="20427"></path></svg>