<?xml version="1.0" standalone="no"?><!DOCTYPE svg PUBLIC "-//W3C//DTD SVG 1.1//EN" "http://www.w3.org/Graphics/SVG/1.1/DTD/svg11.dtd"><svg t="1606892455921" class="icon" viewBox="0 0 1030 1024" version="1.1" xmlns="http://www.w3.org/2000/svg" p-id="10461" xmlns:xlink="http://www.w3.org/1999/xlink" width="201.171875" height="200"><defs><style type="text/css"></style></defs><path d="M563.2 314.368H252.416c-15.36 0-28.16-12.8-28.16-28.16s12.8-28.16 28.16-28.16H563.2c15.36 0 28.16 12.8 28.16 28.16s-12.8 28.16-28.16 28.16zM563.2 457.728H252.416c-15.36 0-28.16-12.8-28.16-28.16s12.8-28.16 28.16-28.16H563.2c15.36 0 28.16 12.8 28.16 28.16s-12.8 28.16-28.16 28.16zM630.784 900.096c-103.936 0-188.928-84.992-188.928-188.928s84.992-188.928 188.928-188.928 188.928 84.992 188.928 188.928-84.992 188.928-188.928 188.928z m0-321.536c-73.216 0-132.608 59.392-132.608 132.608s59.392 132.608 132.608 132.608 132.608-59.392 132.608-132.608-59.392-132.608-132.608-132.608z" p-id="10462" fill="#8a8a8a"></path><path d="M875.52 999.424c-7.68 0-15.36-3.072-20.992-9.216l-130.56-145.92c-10.24-11.776-9.216-29.184 2.048-39.936 11.776-10.24 29.184-9.216 39.936 2.048l130.56 145.92c10.24 11.776 9.216 29.184-2.048 39.936-5.632 4.608-12.288 7.168-18.944 7.168zM322.56 1005.056H43.52c-14.336 0-25.6-11.264-25.6-25.6V35.84c0-14.336 11.264-25.6 25.6-25.6h733.696c14.336 0 25.6 11.264 25.6 25.6v276.992c0 14.336-11.264 25.6-25.6 25.6s-25.6-11.264-25.6-25.6V61.44H69.12v892.416H322.56c14.336 0 25.6 11.264 25.6 25.6s-11.264 25.6-25.6 25.6z" p-id="10463" fill="#8a8a8a"></path></svg>