<?xml version="1.0" standalone="no"?><!DOCTYPE svg PUBLIC "-//W3C//DTD SVG 1.1//EN" "http://www.w3.org/Graphics/SVG/1.1/DTD/svg11.dtd"><svg t="1607665628369" class="icon" viewBox="0 0 1024 1024" version="1.1" xmlns="http://www.w3.org/2000/svg" p-id="3766" xmlns:xlink="http://www.w3.org/1999/xlink" width="200" height="200"><defs><style type="text/css"></style></defs><path d="M742.72 425.344a240.576 240.576 0 0 0-208 121.28 245.504 245.504 0 0 0 0 242.432 240.32 240.32 0 0 0 208 121.344c132.416 0 240.064-108.8 240.064-242.496s-107.584-242.56-240.064-242.56z m0 65.152c35.776 0 70.336 11.328 100.544 32.896L590.784 755.84a176.064 176.064 0 0 1-23.552-87.936 179.392 179.392 0 0 1 51.392-125.44 173.44 173.44 0 0 1 124.096-51.968z m0 354.688a172.864 172.864 0 0 1-100.544-32.832l252.544-232.448c15.424 26.944 23.488 57.216 23.488 87.872 0 46.72-18.688 92.416-51.392 125.44a173.184 173.184 0 0 1-124.096 51.968z" p-id="3767" fill="#F56C6C"></path><path d="M721.856 946.624l-512.704-0.256a94.4 94.4 0 0 1-93.824-94.848V171.328c0-52.288 42.048-94.848 93.824-94.848h543.68c51.84 0 93.952 42.56 93.952 94.848v209.024a30.72 30.72 0 0 0 0.128 4.224l0.064 0.576a37.184 37.184 0 0 0 55.296 27.584 37.12 37.12 0 0 0 17.92-27.584l0.64-243.84C920.832 63.424 858.112 0 780.928 0H181.184C104 0 41.216 63.424 41.216 141.312v741.44c0 77.952 62.784 141.248 139.968 141.248h540.672c21.888 0 39.68-17.344 39.68-38.656s-17.792-38.72-39.68-38.72z" p-id="3768" fill="#F56C6C"></path><path d="M487.36 541.312a37.952 37.952 0 0 0-37.696-38.08H250.688c-20.8 0-37.696 17.088-37.696 38.08s16.896 38.08 37.696 38.08h198.976a37.888 37.888 0 0 0 37.696-38.08zM593.792 397.248a37.952 37.952 0 0 0-37.696-37.952H250.688c-20.8 0-37.696 17.088-37.696 38.08s16.896 38.08 37.696 38.08h305.408a37.888 37.888 0 0 0 37.696-38.208zM749.12 246.144l-0.064-6.336h-0.512a37.504 37.504 0 0 0-37.248-31.744H250.688c-20.8 0-37.696 17.152-37.696 38.08s16.896 38.016 37.696 38.016h460.672c20.864 0 37.76-17.088 37.76-38.016zM250.688 652.096a37.888 37.888 0 0 0-37.696 38.016c0 20.992 16.896 38.08 37.696 38.08h178.432c20.8 0 37.76-17.088 37.76-38.08a37.952 37.952 0 0 0-37.76-38.016H250.688z" p-id="3769" fill="#F56C6C"></path></svg>