<?xml version="1.0" standalone="no"?><!DOCTYPE svg PUBLIC "-//W3C//DTD SVG 1.1//EN" "http://www.w3.org/Graphics/SVG/1.1/DTD/svg11.dtd"><svg t="1611220720047" class="icon" viewBox="0 0 1024 1024" version="1.1" xmlns="http://www.w3.org/2000/svg" p-id="3169" xmlns:xlink="http://www.w3.org/1999/xlink" width="200" height="200"><defs><style type="text/css"></style></defs><path d="M345.6 835.2H676c17.6 0 33.6 13.6 33.6 33.6 0 17.6-13.6 33.6-33.6 33.6H345.6c-17.6 0-33.6-13.6-33.6-33.6s13.6-33.6 33.6-33.6M648.8 952h-276c-4.8 0-6.4 6.4-2.4 11.2l100.8 52c11.2 4.8 24.8 8.8 40.8 8.8 13.6 0 24.8-4.8 38.4-8.8l100.8-52c4.8-4 2.4-11.2-2.4-11.2zM505.6 222.4c40.8 0 76 16 112 49.6 36 31.2 52 72 52 121.6 0 16 13.6 33.6 33.6 33.6 17.6 0 33.6-16 33.6-33.6 0-72-22.4-128-69.6-170.4C620 180.8 566.4 160 505.6 160c-17.6 0-33.6 13.6-33.6 33.6 1.6 12.8 15.2 28.8 33.6 28.8" p-id="3170" fill="#707070"></path><path d="M657.6 779.2H364c-33.6 0-60.8-24.8-64.8-58.4-4.8-6.4-16-22.4-20-27.2-96.8-74.4-152.8-186.4-152.8-308C125.6 172.8 298.4 0 512 0s386.4 172.8 386.4 386.4c0 123.2-56 236-155.2 309.6-4.8 4.8-16 17.6-20 27.2-4.8 28.8-31.2 56-65.6 56z m-284.8-76h276c6.4-27.2 33.6-58.4 47.2-69.6 78.4-58.4 123.2-150.4 123.2-249.6 0-170.4-139.2-309.6-309.6-309.6C339.2 74.4 200 213.6 200 384c0 98.4 44.8 188.8 123.2 247.2 13.6 11.2 42.4 42.4 49.6 72z m0 0" p-id="3171" fill="#707070"></path></svg>