<?xml version="1.0" standalone="no"?><!DOCTYPE svg PUBLIC "-//W3C//DTD SVG 1.1//EN" "http://www.w3.org/Graphics/SVG/1.1/DTD/svg11.dtd"><svg t="1598506875834" class="icon" viewBox="0 0 1024 1024" version="1.1" xmlns="http://www.w3.org/2000/svg" p-id="4956" xmlns:xlink="http://www.w3.org/1999/xlink" width="200" height="200"><defs><style type="text/css"></style></defs><path d="M516.16 1005.76c-271.744 0-492.8-221.12-492.8-492.8A491.712 491.712 0 0 1 326.4 58.112a35.136 35.136 0 1 1 27.136 64.896 421.568 421.568 0 0 0-259.712 389.952c0 232.96 189.44 422.4 422.4 422.4a421.568 421.568 0 0 0 389.952-259.648 35.2 35.2 0 0 1 64.896 27.072 491.648 491.648 0 0 1-454.848 302.976z m457.6-457.6h-457.6a35.2 35.2 0 0 1-35.2-35.2V55.36a35.2 35.2 0 0 1 35.2-35.2c271.68 0 492.8 221.12 492.8 492.8a35.2 35.2 0 0 1-35.2 35.2z m-422.4-70.4h385.728a423.04 423.04 0 0 0-385.728-385.728v385.728z" p-id="4957"></path></svg>