<?xml version="1.0" standalone="no"?><!DOCTYPE svg PUBLIC "-//W3C//DTD SVG 1.1//EN" "http://www.w3.org/Graphics/SVG/1.1/DTD/svg11.dtd"><svg t="1605233920309" class="icon" viewBox="0 0 1024 1024" version="1.1" xmlns="http://www.w3.org/2000/svg" p-id="4324" xmlns:xlink="http://www.w3.org/1999/xlink" width="200" height="200"><defs><style type="text/css"></style></defs><path d="M512 32C246.4 32 32 249.6 32 512s217.6 480 480 480 480-217.6 480-480S774.4 32 512 32z m268.8 380.8L496 697.6c-25.6 25.6-60.8 25.6-83.2 0L243.2 528c-25.6-25.6-25.6-60.8 0-83.2s60.8-25.6 83.2 0l128 128 240-240c25.6-25.6 60.8-25.6 83.2 0 25.6 19.2 25.6 54.4 3.2 80z" p-id="4325" fill="#67C23A"></path></svg>