<?xml version="1.0" standalone="no"?><!DOCTYPE svg PUBLIC "-//W3C//DTD SVG 1.1//EN" "http://www.w3.org/Graphics/SVG/1.1/DTD/svg11.dtd"><svg t="1607665633126" class="icon" viewBox="0 0 1024 1024" version="1.1" xmlns="http://www.w3.org/2000/svg" p-id="5992" xmlns:xlink="http://www.w3.org/1999/xlink" width="200" height="200"><defs><style type="text/css"></style></defs><path d="M245.888 562.048c-21.248 0-37.888 16.64-37.888 37.888s16.64 37.824 37.888 37.824c21.248 0 37.888-16.576 37.888-37.824s-16.704-37.888-37.888-37.888z m37.888-340.992c0 21.248-16.64 37.888-37.888 37.888A37.504 37.504 0 0 1 208 221.056c0-21.248 16.64-37.888 37.888-37.888a37.504 37.504 0 0 1 37.888 37.888z m0 189.376c0 21.312-16.64 37.888-37.888 37.888A37.504 37.504 0 0 1 208 410.432c0-21.248 16.64-37.888 37.888-37.888 21.184 0 37.888 16.704 37.888 37.888z m435.712-189.376a31.36 31.36 0 0 1-31.616 31.552H372.16a31.232 31.232 0 0 1-31.552-31.552c0-17.664 13.888-31.552 31.552-31.552h315.712a31.296 31.296 0 0 1 31.616 31.552z m0 189.376a31.36 31.36 0 0 1-31.616 31.616H372.16a31.296 31.296 0 0 1-31.552-31.616c0-17.6 13.888-31.552 31.552-31.552h315.712a31.36 31.36 0 0 1 31.616 31.552zM283.776 792.32c0 21.248-16.64 37.888-37.888 37.888A37.504 37.504 0 0 1 208 792.32c0-21.312 16.64-37.888 37.888-37.888 21.184 0 37.888 16.576 37.888 37.888z m146.56 217.984H151.168A126.656 126.656 0 0 1 24.832 884.032V126.336A126.72 126.72 0 0 1 151.168 0h631.488c69.504 0 126.272 56.832 126.272 126.336v292.032c-18.624 0-63.104 2.88-63.104-8.192v-283.84a63.232 63.232 0 0 0-63.104-63.104H151.168a63.232 63.232 0 0 0-63.104 63.104v757.76a63.36 63.36 0 0 0 63.104 63.168h271.168c7.168 21.952-2.752 43.136 8 63.04z m-89.728-410.368a31.36 31.36 0 0 1 31.552-31.68h76.608c-11.264 18.688-10.816 39.936-19.712 63.232H372.16a31.296 31.296 0 0 1-31.552-31.552z m650.88 145.472A272.64 272.64 0 0 1 719.36 1017.6a272.32 272.32 0 0 1-271.936-272.192A272.32 272.32 0 0 1 719.36 473.6a272.32 272.32 0 0 1 272.128 271.808z m-70.208 0c0-111.104-90.624-201.664-201.856-201.664s-201.728 90.56-201.728 201.664c0 111.232 90.496 201.728 201.728 201.728S921.28 856.704 921.28 745.408z m-72.576-84.544a36.992 36.992 0 0 0-26.816-10.816 37.632 37.632 0 0 0-26.24 10.816l-92.992 92.992-48.256-48.32a37.952 37.952 0 0 0-27.904-10.624 36.672 36.672 0 0 0-36.096 35.712 37.76 37.76 0 0 0 10.752 28.224l74.624 74.496 1.984 1.856h0.064a36.736 36.736 0 0 0 24.704 9.344 36.992 36.992 0 0 0 26.496-11.072l119.68-119.616a37.888 37.888 0 0 0 0-52.992z" fill="#67C23A" p-id="5993"></path></svg>