<?xml version="1.0" standalone="no"?><!DOCTYPE svg PUBLIC "-//W3C//DTD SVG 1.1//EN" "http://www.w3.org/Graphics/SVG/1.1/DTD/svg11.dtd"><svg t="1606892313940" class="icon" viewBox="0 0 1024 1024" version="1.1" xmlns="http://www.w3.org/2000/svg" p-id="2025" xmlns:xlink="http://www.w3.org/1999/xlink" width="200" height="200"><defs><style type="text/css"></style></defs><path d="M878.3 98H188c-27.5 0-50 22.5-50 50v172.2h50V148.1l0.1-0.1h690.1l0.1 0.1v730.1l-0.1 0.1H188.1l-0.1-0.1v-174h-50v174.1c0 27.5 22.5 50 50 50h690.3c27.5 0 50-22.5 50-50V148c0-27.5-22.5-50-50-50z" fill="#8a8a8a" p-id="2026"></path><path d="M209.4 433.8H115c-9.4 0-17-11.2-17-25s7.6-25 17-25h94.4c9.4 0 17 11.2 17 25 0.1 13.8-7.6 25-17 25zM209.4 537.5H115c-9.4 0-17-11.2-17-25s7.6-25 17-25h94.4c9.4 0 17 11.2 17 25 0.1 13.8-7.6 25-17 25zM209.4 638.4H115c-9.4 0-17-11.2-17-25s7.6-25 17-25h94.4c9.4 0 17 11.2 17 25 0.1 13.8-7.6 25-17 25zM581 301.6c-7.3 46.6 6.2 95 41 129.8 27.7 27.7 65.1 43 105.2 43 8.2 0 16.4-0.7 24.5-2-2.6 3.2-5.5 6.2-8.4 9.2-13.1 13.1-28.2 23.2-44.9 30.1-16 6.6-32.7 9.9-49.7 9.9-12.8 0-25.3-1.9-37.2-5.7l-29-9.3-21.6 21.6-221.8 221.6c-5.7 5.7-12.5 6.6-16.1 6.6-3.5 0-10.4-0.9-16.1-6.6l-3.5-3.5c-8.7-8.7-8.7-23.4 0-32.1l221.7-221.7 21.6-21.6-9.3-29c-6.9-21.6-7.6-45.1-2-68 5.9-23.9 18.4-45.9 36.2-63.8 3.1-3 6.2-5.8 9.4-8.5m85.4-81.5c-46.4 0-93.7 18.3-130 54.6-50.3 50.3-66.1 121.5-46.5 182.4L268.2 678.8c-28.3 28.3-28.3 74.6 0 102.8l3.5 3.5c14.1 14.1 32.8 21.2 51.4 21.2s37.3-7.1 51.4-21.2l221.7-221.7c16.9 5.4 34.6 8.1 52.4 8.1 46.4 0 93.7-18.3 130-54.7 44.4-44.4 61.9-105.1 51.9-160.7-5.6 12.4-13.5 24.1-23.9 34.5-22.3 22.3-51.3 33.7-79.6 33.7-25.7 0-50.9-9.4-69.8-28.4-39.8-39.8-37.4-106.7 5.3-149.4 10.3-10.3 22-18.3 34.5-23.9-10-1.6-20.3-2.5-30.6-2.5z" fill="#8a8a8a" p-id="2027"></path></svg>