<?xml version="1.0" standalone="no"?><!DOCTYPE svg PUBLIC "-//W3C//DTD SVG 1.1//EN" "http://www.w3.org/Graphics/SVG/1.1/DTD/svg11.dtd"><svg t="1606892410328" class="icon" viewBox="0 0 1024 1024" version="1.1" xmlns="http://www.w3.org/2000/svg" p-id="8861" xmlns:xlink="http://www.w3.org/1999/xlink" width="200" height="200"><defs><style type="text/css"></style></defs><path d="M704 672h192v64H704zM640 800h256v64H640zM768 544h128v64H768z" p-id="8862" fill="#8a8a8a"></path><path d="M507.86 782.68l-54.94-28.47V847h118.16v-92.79l-54.94 28.47a9 9 0 0 1-8.28 0zM513 517.82l4.39-7.57h-8.79l4.4 7.57z" p-id="8863" fill="#8a8a8a"></path><path d="M854.79 293.44a127 127 0 0 0-24.88-16.88L572.72 143.27a132.15 132.15 0 0 0-121.43 0L194.08 276.56C153.32 297.68 128 338.2 128 382.32v260.36c0 44.11 25.32 84.63 66.08 105.76l257.2 133.28a132.09 132.09 0 0 0 120.22 0.61V754.49l-0.42 0.22v92.79H452.92v-92.79L250.66 649.9a8.16 8.16 0 0 1-4.51-7.21V439.12l-87.58-45.84 0.22-0.38 87.36 45.72v0.5l206.77 108.22v-0.5l33.18 17.37 26.9-46.39-4.4-7.57h-0.29l-25.8-44.42 0.22-0.12 25.87 44.54h8.79l-4.39 7.57 26.6 45.79 31.48-16.5 129.08-67.67H896v-97.12c0-34.27-15.28-66.32-41.21-88.88zM563.48 423.38v-0.5l-51.22 26.85-0.48 0.25L310 344.37l-59.34 30.73a8.16 8.16 0 0 0-4.51 7.21v-0.5a8.16 8.16 0 0 1 4.51-7.21l58.84-30.49 0.48 0.25 197.88-102.54a9 9 0 0 1 8.28 0l99.61 51.62 98.36 51z" p-id="8864" fill="#8a8a8a"></path><path d="M507.86 783.18a9 9 0 0 0 8.28 0l54.94-28.47V547.6l-31.48 16.5-26.6-45.78-26.9 46.39-33.18-17.37v207.37z" p-id="8865" fill="#8a8a8a"></path></svg>