<?xml version="1.0" standalone="no"?><!DOCTYPE svg PUBLIC "-//W3C//DTD SVG 1.1//EN" "http://www.w3.org/Graphics/SVG/1.1/DTD/svg11.dtd"><svg t="1605778851409" class="icon" viewBox="0 0 1024 1024" version="1.1" xmlns="http://www.w3.org/2000/svg" p-id="3672" xmlns:xlink="http://www.w3.org/1999/xlink" width="200" height="200"><defs><style type="text/css"></style></defs><path d="M586.3424 385.536H742.4V281.6h-156.0576v103.936z m-25.6-155.136H768a25.6 25.6 0 0 1 25.6 25.6v155.136a25.6 25.6 0 0 1-25.6 25.6h-207.2576a25.6 25.6 0 0 1-25.6-25.6V256a25.6 25.6 0 0 1 25.6-25.6z m181.6576 512v-206.9504h-156.0576V742.4H742.4z m-207.2576 25.6V509.8496a25.6 25.6 0 0 1 25.6-25.6H768a25.6 25.6 0 0 1 25.6 25.6V768a25.6 25.6 0 0 1-25.6 25.6h-207.2576a25.6 25.6 0 0 1-25.6-25.6z m-97.4848-25.6v-103.936H281.6v103.936h156.0576zM230.4 768v-155.136a25.6 25.6 0 0 1 25.6-25.6h207.2576a25.6 25.6 0 0 1 25.6 25.6V768a25.6 25.6 0 0 1-25.6 25.6H256a25.6 25.6 0 0 1-25.6-25.6z m207.2576-279.4496V281.6H281.6v206.9504h156.0576z m-207.2576 25.6V256a25.6 25.6 0 0 1 25.6-25.6h207.2576a25.6 25.6 0 0 1 25.6 25.6v258.1504a25.6 25.6 0 0 1-25.6 25.6H256a25.6 25.6 0 0 1-25.6-25.6z" p-id="3673"></path></svg>