<?xml version="1.0" standalone="no"?><!DOCTYPE svg PUBLIC "-//W3C//DTD SVG 1.1//EN" "http://www.w3.org/Graphics/SVG/1.1/DTD/svg11.dtd"><svg t="1607504510005" class="icon" viewBox="0 0 1024 1024" version="1.1" xmlns="http://www.w3.org/2000/svg" p-id="3560" xmlns:xlink="http://www.w3.org/1999/xlink" width="200" height="200"><defs><style type="text/css"></style></defs><path d="M258.656 632.204v-188.986s-3.984-64.752-63.7-64.752H23.658c-17.332 71.3-34.174 196.142 13.412 317.182h157.888c-0.002 0.002 63.698 0.002 63.698-63.444z m-64.36 1.978h-126.06v-194.27h126.06v194.27z m384.328 61.13l0.044 0.058 0.096-0.058h62.392V378.136h-63.686v199.078l-128.724-197.068v-2.01h-63.692v317.176h63.692v-198.818l128.724 197.048v1.77h1.154zM176.812 304.572c37.226-59.842 90.002-108.144 152.786-141.044-14.116 38.938-29.854 91.828-41.902 155.28h103.088c10.296-61.364 25.782-128.56 48.956-194.624l-5.202 0.482c25.356-5.076 51.544-7.866 78.398-7.866 27.272 0 53.664 3.388 79.368 8.678 22.698 64.956 38.096 132.936 48.36 193.33h103.032c-11.876-61.86-27.266-113.492-41.122-151.86 60.616 33.166 111.438 80.828 147.47 139.44 0.07 3.838 2.068 6.808 3.178 12.422h131.002C908.026 134.142 725.828 4.016 512.938 4.016c-212.896 0-395.086 130.126-471.302 314.792h131.11c0.616-4.624 2.608-11.564 4.066-14.236zM706.58 853.924c10.55-30.984 18.506-61.188 25.592-91.066h-101.204c-15.86 73.05-33.902 121.848-39.364 135.486-25.44 5.1-51.722 7.892-78.664 7.892-24.506 0-48.258-2.938-71.54-7.188-1.738-4.098-22.16-53.834-40.202-136.192h-101.008c7.556 31.352 16.164 63.072 27.488 95.596-45.264-24.03-84.418-56.866-116.9-95.596H70.642c87.794 152.894 252.786 256.148 442.298 256.148 189.5 0 354.504-103.254 442.292-256.148h-140.162c-30.434 36.32-66.652 67.544-108.49 91.068z m314.766-348.966v-0.616H957.64v0.616h-126.06v-63.394h183.738a641.678 641.678 0 0 0-12.262-63.426H768.548v0.648h-0.666v190.318h63.7v-0.716h126.06v63.496h-189.094v63.432H991.22c20.35-52.698 28.64-106.024 29.984-155.33l0.144 28.4H1022V504.96h-0.654z" fill="#707070" p-id="3561"></path></svg>