<?xml version="1.0" standalone="no"?><!DOCTYPE svg PUBLIC "-//W3C//DTD SVG 1.1//EN" "http://www.w3.org/Graphics/SVG/1.1/DTD/svg11.dtd"><svg t="1607504481087" class="icon" viewBox="0 0 1024 1024" version="1.1" xmlns="http://www.w3.org/2000/svg" p-id="2018" xmlns:xlink="http://www.w3.org/1999/xlink" width="200" height="200"><defs><style type="text/css"></style></defs><path d="M153.6 627.2l19.2-96c6.4-19.2 6.4-38.4 12.8-64 6.4 25.6 12.8 44.8 19.2 64l25.6 96h70.4l51.2-217.6h-57.6l-25.6 108.8c-6.4 19.2-6.4 38.4-12.8 57.6-6.4-19.2-6.4-44.8-12.8-64l-25.6-102.4h-51.2l-25.6 108.8-19.2 57.6c-6.4-19.2-6.4-44.8-12.8-64l-19.2-102.4H32l57.6 217.6h64zM608 518.4c-6.4 19.2-6.4 38.4-12.8 57.6-6.4-19.2-6.4-44.8-12.8-64l-32-102.4h-51.2l-25.6 108.8c-6.4 19.2-6.4 38.4-12.8 57.6-6.4-19.2-6.4-38.4-12.8-57.6l-19.2-108.8h-57.6l57.6 217.6h64L512 531.2c6.4-19.2 6.4-38.4 12.8-64 6.4 25.6 6.4 44.8 12.8 64l25.6 96h70.4l51.2-217.6h-51.2l-25.6 108.8zM947.2 518.4c-6.4 19.2-6.4 44.8-12.8 64-6.4-19.2-6.4-44.8-12.8-64L896 409.6h-51.2l-25.6 108.8c-6.4 19.2-6.4 44.8-12.8 64-6.4-19.2-6.4-44.8-12.8-64L768 409.6h-64l57.6 217.6h64l19.2-96c6.4-19.2 6.4-38.4 12.8-64 6.4 25.6 6.4 44.8 12.8 64l25.6 96h70.4l57.6-217.6h-51.2l-25.6 108.8zM403.2 102.4c-19.2 19.2-32 44.8-44.8 76.8-25.6 51.2-38.4 115.2-51.2 179.2h51.2c6.4-57.6 25.6-115.2 44.8-160C435.2 128 473.6 89.6 512 83.2h25.6c38.4 6.4 76.8 51.2 108.8 115.2 19.2 44.8 38.4 102.4 44.8 160h51.2c-12.8-64-25.6-128-51.2-179.2-12.8-32-32-51.2-44.8-76.8 128 38.4 230.4 134.4 275.2 256h70.4C928 160 742.4 19.2 524.8 19.2S128 160 64 358.4h64c44.8-121.6 147.2-217.6 275.2-256zM652.8 915.2c12.8-19.2 25.6-38.4 38.4-70.4 25.6-51.2 38.4-108.8 51.2-172.8h-51.2c-12.8 57.6-25.6 108.8-44.8 153.6-25.6 51.2-57.6 89.6-89.6 102.4h-64c-32-12.8-64-51.2-89.6-108.8-19.2-44.8-38.4-96-44.8-153.6h-51.2c12.8 64 25.6 121.6 51.2 172.8 12.8 38.4 25.6 57.6 38.4 76.8-121.6-38.4-217.6-128-262.4-243.2H64c70.4 192 249.6 326.4 460.8 326.4s390.4-134.4 460.8-326.4h-70.4c-44.8 115.2-140.8 204.8-262.4 243.2z" p-id="2019" fill="#707070"></path></svg>