<?xml version="1.0" standalone="no"?><!DOCTYPE svg PUBLIC "-//W3C//DTD SVG 1.1//EN" "http://www.w3.org/Graphics/SVG/1.1/DTD/svg11.dtd"><svg t="1606182698898" class="icon" viewBox="0 0 1024 1024" version="1.1" xmlns="http://www.w3.org/2000/svg" p-id="9888" xmlns:xlink="http://www.w3.org/1999/xlink" width="200" height="200"><defs><style type="text/css"></style></defs><path d="M916.48 788.48H107.52c-31.0528 0-56.32-25.2672-56.32-56.32V107.52c0-31.0528 25.2672-56.32 56.32-56.32h808.96c31.0528 0 56.32 25.2672 56.32 56.32v624.64c0 31.0528-25.2672 56.32-56.32 56.32zM122.88 716.8h778.24V122.88H122.88v593.92z" p-id="9889" fill="#707070"></path><path d="M298.1376 506.88c0 19.712-16.128 35.84-35.84 35.84H87.04c-19.712 0-35.84-16.128-35.84-35.84s16.128-35.84 35.84-35.84h175.2576c19.712 0 35.84 16.128 35.84 35.84z" p-id="9890" fill="#707070"></path><path d="M332.42112 606.39744c-17.13664 11.01824-40.61184 6.66624-52.16256-9.68192L232.2432 528.7936c-11.55584-16.34304-6.9888-38.7328 10.14784-49.75104s40.61184-6.66112 52.16256 9.68192l48.01536 67.92192c11.55584 16.34304 6.98368 38.7328-10.14784 49.75104zM936.96 506.88c0 19.712-16.128 35.84-35.84 35.84h-250.41408c-19.712 0-35.84-16.128-35.84-35.84s16.128-35.84 35.84-35.84H901.12c19.712 0 35.84 16.128 35.84 35.84z" p-id="9891" fill="#707070"></path><path d="M660.1984 539.80672l-0.65024 0.26112c-18.90304 7.49568-40.80128-1.12128-48.66048-19.15392L490.84928 245.53472c-7.8592-18.03264 1.1776-38.91712 20.08064-46.4128l0.65024-0.26112c18.90304-7.49568 40.80128 1.12128 48.66048 19.15392l120.0384 275.3792c7.86432 18.03264-1.17248 38.91712-20.08064 46.4128z" p-id="9892" fill="#707070"></path><path d="M298.1376 610.18624c-17.89952-9.856-24.0896-31.88736-13.75232-48.95744l209.54624-346.1632c10.33216-17.07008 33.4336-22.97344 51.33312-13.11744 17.89952 9.856 24.0896 31.88736 13.75232 48.95744l-209.54624 346.1632c-10.33216 17.07008-33.4336 22.97344-51.33312 13.11744z" p-id="9893" fill="#707070"></path><path d="M824.32 930.3808v13.15328c0 16.09728-13.16864 29.2608-29.2608 29.2608H239.1808c-16.09728 0-29.2608-13.16864-29.2608-29.2608v-13.15328c0-16.09728 13.16864-29.2608 29.2608-29.2608h555.87328c16.09728 0 29.26592 13.16864 29.26592 29.2608z" p-id="9894" fill="#707070"></path></svg>